<svg width="180" height="163" viewBox="0 0 180 163" fill="none" xmlns="http://www.w3.org/2000/svg">
<path d="M180 103.223C180 158.816 133.313 205.922 76.8648 205.497C19.992 205.073 -25.4215 159.241 -24.997 102.375C-24.997 46.3573 20.8408 0.949371 76.8648 0.524998C133.738 -0.748121 180 46.7817 180 103.223ZM153.261 154.572C149.441 150.329 146.47 146.934 143.075 143.963C125.674 128.261 104.877 117.228 82.8068 109.589C81.1091 109.164 78.5625 108.74 77.7137 109.589C70.074 115.106 62.4344 121.047 54.7948 126.988C61.5856 136.324 70.9229 143.114 80.6846 149.48C95.9639 159.241 112.941 166.879 129.918 172.82C132.889 173.669 135.011 174.094 137.133 171.547C142.226 166.455 147.319 160.938 153.261 154.572ZM110.819 108.316C112.092 101.101 113.365 94.3114 114.214 87.5215C115.487 68.8491 113.365 50.1766 109.546 31.9286C105.726 14.9537 105.726 15.3781 89.1731 11.5587C84.08 10.71 82.3824 11.9831 81.1091 16.6512C74.7427 42.5379 75.5915 68.8491 81.5335 94.7358C81.9579 96.4333 83.6556 98.1308 85.3533 98.9795C92.993 101.95 101.057 104.921 110.819 108.316ZM64.9809 70.9709C59.039 73.0928 53.5215 74.3659 48.4284 76.9121C28.9049 86.2483 11.9279 99.4039 -4.20027 113.833C-10.9911 119.774 -13.1132 124.866 -9.71781 133.354C-8.44453 136.324 -7.17126 137.597 -3.35144 136.749C23.8117 131.656 47.5795 118.925 68.8007 101.95C69.6496 101.526 70.074 99.8283 70.074 98.9795C68.8007 90.0677 66.6786 80.7315 64.9809 70.9709ZM118.458 20.8949C127.371 63.3322 127.796 90.0677 120.156 113.408C126.522 117.652 133.313 121.896 140.104 126.139C140.528 125.291 140.953 124.866 140.953 124.018C148.168 98.9795 151.139 73.5172 146.046 47.6304C145.622 44.6598 145.622 41.2648 143.924 39.5673C136.709 32.353 128.645 25.9874 118.458 20.8949ZM-15.6597 107.043C-14.8109 107.043 -14.3864 107.467 -13.5376 107.467C9.38132 86.6727 33.1491 66.7272 64.9809 59.5129C64.9809 51.4498 64.9809 43.8111 64.9809 36.1723C64.5565 36.1723 64.1321 36.1723 63.7076 36.1723C39.091 42.5379 16.1721 52.2985 -3.35144 69.2734C-5.89799 71.8197 -9.71777 74.3659 -10.1422 77.7609C-13.1132 87.5215 -13.962 97.2821 -15.6597 107.043ZM22.5385 142.266C23.8118 143.963 25.085 145.236 25.9339 146.509C40.7887 162.635 56.9169 177.064 76.8648 187.249C85.3533 191.493 93.4174 194.463 102.755 190.644C109.121 188.098 115.487 185.552 122.703 182.581C92.1441 170.699 64.1321 157.543 43.7597 132.929C36.9689 135.9 29.7537 138.871 22.5385 142.266ZM158.354 143.114C171.936 122.744 171.936 82.8534 159.203 64.6053C159.203 72.244 159.628 79.034 159.203 85.3996C158.354 101.101 155.383 116.379 150.715 131.232C150.29 132.929 150.29 135.476 151.564 136.749C153.261 139.295 155.808 140.992 158.354 143.114ZM3.86383 48.0548C4.28825 48.4792 4.28824 48.9035 4.71267 48.9035C5.13709 48.9035 5.5615 48.9035 5.5615 48.9035C24.2362 37.4455 44.1842 29.8067 65.4054 24.7143C66.2542 24.2899 67.9519 23.4411 67.9519 22.5924C68.8007 18.773 69.6496 15.3781 70.4985 11.1343C42.4865 14.1049 20.4164 25.9874 3.86383 48.0548ZM-1.6537 148.207C11.079 174.094 43.7597 192.342 62.4344 191.917C60.3122 190.644 58.1901 189.371 56.4924 188.098C39.9399 177.064 25.5095 163.484 12.3523 147.782C11.079 146.509 8.53249 145.661 6.83479 146.085C3.86382 146.509 0.892845 147.358 -1.6537 148.207Z" fill="white" fill-opacity="0.2"/>
</svg>
