<svg width="226" height="163" viewBox="0 0 226 163" fill="none" xmlns="http://www.w3.org/2000/svg">
<path d="M219.013 110.961C228.287 111.403 234.469 107.87 240.21 102.57C243.302 99.9207 245.51 97.7126 249.043 101.246C251.692 103.895 251.251 107.87 247.718 111.403C241.094 117.585 233.144 121.56 224.312 122.885C210.181 125.093 197.374 122.443 185.45 114.052C165.578 126.859 145.705 127.301 125.391 114.052C105.96 126.859 85.646 127.301 65.3319 114.052C53.85 121.56 41.0432 125.534 26.9116 122.885C18.0794 121.56 10.1304 118.027 3.94782 111.844C3.0646 110.961 2.18137 109.636 1.29815 108.753C-0.468298 105.662 -0.026686 103.012 2.62299 100.804C5.27266 98.5958 7.48072 99.4791 10.1304 101.687C16.313 107.428 22.9371 111.403 32.6526 110.961C28.2365 100.804 23.8204 90.6468 19.4042 80.9314C16.313 74.3072 13.2217 67.683 10.572 60.6172C7.48072 52.6682 10.1304 49.1353 18.9626 50.4602C33.5358 53.1098 48.109 55.3179 62.6822 57.9676C66.6567 58.8508 69.3064 57.9676 72.3977 54.8763C87.4125 38.5366 102.427 22.197 117.884 6.29895C119.209 4.97412 120.533 3.64927 121.858 2.76604C124.95 -0.325241 128.041 -0.325282 131.574 3.20761C142.614 15.1311 154.096 27.0547 165.136 38.9782C170.877 45.1608 176.177 51.3434 182.359 57.0843C183.684 58.4092 186.775 58.8507 188.983 58.4091C203.556 56.2011 218.571 53.1098 233.144 50.9017C235.794 50.4601 241.093 50.9017 241.535 52.2266C242.86 54.8763 242.418 58.8507 241.094 61.942C233.586 78.2817 226.52 94.1797 219.013 110.961ZM227.404 63.7085C223.429 64.5917 220.338 65.0333 217.246 65.4749C192.958 69.4494 169.111 73.8656 144.822 77.8401C137.315 79.1649 129.366 81.373 121.858 80.0482C93.1535 75.632 64.8903 70.3327 36.6271 65.4749C32.6526 65.0333 29.1197 64.1501 24.262 63.7085C31.3278 80.0482 37.952 95.5046 45.0177 110.961C54.2916 108.753 60.9158 103.012 65.7735 95.0629C72.8393 107.428 82.9964 111.844 95.8031 111.844C108.61 111.844 118.767 107.428 125.833 95.0629C132.899 107.428 143.056 111.844 155.862 111.844C168.669 111.844 179.268 106.986 185.892 95.5046C191.191 103.895 197.374 109.636 206.648 110.961C213.272 95.063 219.896 80.0482 227.404 63.7085ZM82.9964 61.0588C112.143 70.3327 140.406 70.3327 169.111 61.0588C154.538 45.6024 140.406 30.5876 126.274 15.1312C111.26 30.5876 97.128 45.6024 82.9964 61.0588Z" fill="white" fill-opacity="0.2"/>
<path d="M125.391 145.848C145.264 167.929 165.578 167.929 185.892 145.848C194.724 160.421 208.414 163.071 223.871 160.863C230.495 159.98 236.236 156.888 240.652 152.031C243.302 149.381 245.951 148.498 249.043 151.147C251.692 153.797 251.692 156.888 249.484 159.538C241.977 168.37 231.82 172.345 220.779 173.228C207.973 174.553 196.049 171.903 185.892 163.954C166.903 176.761 143.939 177.203 125.833 163.954C105.96 176.761 86.0877 177.203 65.7736 163.954C53.4084 173.228 39.7185 174.995 24.7037 172.345C15.4298 170.578 7.92239 166.604 1.73983 159.097C-0.909848 156.005 -0.468235 152.914 2.62305 151.589C4.3895 150.706 8.80562 151.147 9.68884 152.472C18.5211 162.629 40.1601 165.279 52.9668 158.655C57.8246 156.005 61.3575 151.589 66.2152 147.615C72.8394 157.772 82.9965 162.629 95.8032 162.188C108.61 161.746 119.209 157.33 125.391 145.848Z" fill="white" fill-opacity="0.2"/>
</svg>
