<svg width="40" height="38" viewBox="0 0 40 38" fill="none" xmlns="http://www.w3.org/2000/svg">
<path d="M19.7819 33.5388C19.9031 33.5388 20.0242 33.5085 20.1454 33.448C20.2665 33.3874 20.3574 33.3268 20.418 33.2662L35.3203 18.3639C35.6838 18.0004 35.9491 17.5915 36.1163 17.1372C36.2835 16.6828 36.3665 16.2285 36.3653 15.7742C36.3653 15.2895 36.2823 14.8273 36.1163 14.3875C35.9503 13.9477 35.685 13.5618 35.3203 13.2299L27.5965 5.50611C27.2634 5.14264 26.8769 4.87791 26.4371 4.71192C25.9973 4.54594 25.5363 4.46234 25.0541 4.46113C24.5997 4.46113 24.1454 4.54473 23.691 4.71192C23.2367 4.87912 22.8278 5.14385 22.4643 5.50611L21.9646 6.00588L25.3267 9.41342C25.781 9.83747 26.1142 10.3221 26.3262 10.8673C26.5382 11.4125 26.6443 11.988 26.6443 12.5938C26.6443 13.8659 26.2129 14.9339 25.3503 15.7978C24.4877 16.6616 23.4197 17.093 22.1463 17.0917C21.5405 17.0917 20.9577 16.9857 20.398 16.7737C19.8383 16.5617 19.3458 16.2437 18.9205 15.8196L15.5111 12.4575L7.5602 20.4084C7.46933 20.4993 7.40148 20.598 7.35666 20.7047C7.31183 20.8113 7.28881 20.9246 7.2876 21.0445C7.2876 21.2868 7.37847 21.5067 7.5602 21.7042C7.74194 21.9017 7.95396 21.9998 8.19627 21.9986C8.31743 21.9986 8.43859 21.9683 8.55975 21.9077C8.6809 21.8472 8.77177 21.7866 8.83235 21.726L15.0114 15.547L17.5557 18.0913L11.4221 24.2703C11.3312 24.3612 11.2634 24.4599 11.2185 24.5665C11.1737 24.6732 11.1507 24.7864 11.1495 24.9064C11.1495 25.1487 11.2403 25.3607 11.4221 25.5425C11.6038 25.7242 11.8158 25.8151 12.0582 25.8151C12.1793 25.8151 12.3005 25.7848 12.4216 25.7242C12.5428 25.6636 12.6337 25.603 12.6942 25.5425L18.8732 19.4089L21.4175 21.9532L15.284 28.1322C15.1931 28.1928 15.1252 28.2836 15.0804 28.4048C15.0356 28.5259 15.0126 28.6471 15.0114 28.7683C15.0114 29.0106 15.1022 29.2226 15.284 29.4043C15.4657 29.5861 15.6777 29.6769 15.92 29.6769C16.0412 29.6769 16.1551 29.6539 16.2617 29.6079C16.3683 29.5618 16.4665 29.494 16.5561 29.4043L22.7351 23.2708L25.2794 25.8151L19.1004 31.9941C19.0095 32.0849 18.9417 32.1831 18.8969 32.2885C18.852 32.3939 18.829 32.5078 18.8278 32.6301C18.8278 32.8725 18.9265 33.0845 19.124 33.2662C19.3215 33.448 19.5408 33.5388 19.7819 33.5388ZM19.7365 37.1735C18.6158 37.1735 17.6241 36.8028 16.7615 36.0613C15.8988 35.3198 15.3912 34.3881 15.2385 33.2662C14.2087 33.1148 13.3454 32.6907 12.6488 31.9941C11.9521 31.2974 11.5281 30.4342 11.3766 29.4043C10.3468 29.2529 9.49144 28.8216 8.81054 28.1104C8.12964 27.3992 7.71286 26.5432 7.5602 25.5425C6.40921 25.391 5.47024 24.8912 4.7433 24.0431C4.01636 23.195 3.65288 22.1955 3.65288 21.0445C3.65288 20.4387 3.76677 19.8559 3.99455 19.2962C4.22232 18.7365 4.54763 18.244 4.97047 17.8187L15.5111 7.32346L21.463 13.2753C21.5236 13.3662 21.6144 13.4346 21.7356 13.4807C21.8567 13.5267 21.9779 13.5491 22.099 13.5479C22.3716 13.5479 22.5988 13.4649 22.7806 13.2989C22.9623 13.1329 23.0532 12.913 23.0532 12.6392C23.0532 12.5181 23.0301 12.3969 22.9841 12.2758C22.9381 12.1546 22.8702 12.0637 22.7806 12.0032L16.2835 5.50611C15.9503 5.14264 15.5644 4.87791 15.1259 4.71192C14.6873 4.54594 14.225 4.46234 13.7392 4.46113C13.2849 4.46113 12.8305 4.54473 12.3762 4.71192C11.9219 4.87912 11.5129 5.14385 11.1495 5.50611L4.7433 11.9577C4.4707 12.2303 4.24353 12.5484 4.06179 12.9118C3.88005 13.2753 3.7589 13.6388 3.69832 14.0022C3.63774 14.3657 3.63774 14.7371 3.69832 15.1163C3.7589 15.4955 3.88005 15.8511 4.06179 16.1831L1.42662 18.8182C0.911707 18.1216 0.533091 17.3571 0.290777 16.5247C0.0484628 15.6924 -0.042405 14.8516 0.0181736 14.0022C0.0787521 13.1529 0.290777 12.3279 0.654248 11.527C1.01772 10.7262 1.51749 10.0065 2.15357 9.36799L8.55975 2.96181C9.28669 2.26516 10.0972 1.73509 10.9914 1.37162C11.8855 1.00815 12.8015 0.826416 13.7392 0.826416C14.677 0.826416 15.5935 1.00815 16.4889 1.37162C17.3842 1.73509 18.179 2.26516 18.8732 2.96181L19.373 3.46158L19.8728 2.96181C20.5997 2.26516 21.4103 1.73509 22.3044 1.37162C23.1985 1.00815 24.1145 0.826416 25.0522 0.826416C25.99 0.826416 26.9066 1.00815 27.8019 1.37162C28.6973 1.73509 29.4921 2.26516 30.1863 2.96181L37.8646 10.6401C38.5613 11.3368 39.0913 12.1395 39.4548 13.0481C39.8183 13.9568 40 14.8806 40 15.8196C40 16.7586 39.8183 17.6751 39.4548 18.5693C39.0913 19.4634 38.5613 20.2582 37.8646 20.9536L22.9623 35.8105C22.5382 36.2346 22.0463 36.5677 21.4866 36.8101C20.9269 37.0524 20.3435 37.1735 19.7365 37.1735Z" fill="#16A34A"/>
</svg>
