<svg width="48" height="48" viewBox="0 0 48 48" fill="none" xmlns="http://www.w3.org/2000/svg">
<path d="M26.0001 6C33.7601 6 40.0001 12.28 40.0001 20C40.0001 25.6 36.7401 30.38 32.0001 32.62V42H18.0001V36H16.0001C13.7801 36 12.0001 34.22 12.0001 32V26H9.00008C8.16008 26 7.68008 25 8.16008 24.38L12.0001 19.32C12.1763 15.7266 13.7285 12.3388 16.335 9.8589C18.9415 7.379 22.4024 5.99722 26.0001 6ZM26.0001 2C16.8201 2 9.22008 8.84 8.12008 17.8L5.00008 22H4.94008L4.90008 22.06C3.80008 23.58 3.66008 25.58 4.52008 27.24C5.24008 28.62 6.52008 29.58 8.00008 29.88V32C8.00008 35.7 10.5601 38.84 14.0001 39.74V46H36.0001V35C41.0001 31.66 44.0001 26.12 44.0001 20C44.0001 10.06 35.9201 2 26.0001 2ZM34.6601 18.6L30.7401 19.62L33.6201 22.54C34.3201 23.22 34.3201 24.38 33.6201 25.08C32.9201 25.78 31.7601 25.78 31.0801 25.08L28.1801 22.2L27.1401 26.12C26.9001 27.1 25.9201 27.64 25.0001 27.4C24.7672 27.3417 24.5482 27.2378 24.3556 27.0945C24.163 26.9511 24.0007 26.7711 23.878 26.5647C23.7554 26.3584 23.6747 26.1298 23.6407 25.8921C23.6067 25.6545 23.6201 25.4125 23.6801 25.18L24.7401 21.26L20.8201 22.32C20.5876 22.38 20.3456 22.3933 20.1079 22.3594C19.8703 22.3254 19.6417 22.2447 19.4354 22.122C19.229 21.9993 19.049 21.837 18.9056 21.6445C18.7623 21.4519 18.6584 21.2329 18.6001 21C18.3601 20.1 18.9201 19.1 19.8801 18.86L23.8001 17.82L20.9201 14.92C20.6192 14.5763 20.4602 14.1312 20.4753 13.6746C20.4905 13.2181 20.6786 12.7844 21.0016 12.4615C21.3245 12.1385 21.7582 11.9504 22.2147 11.9352C22.6712 11.9201 23.1164 12.0791 23.4601 12.38L26.3801 15.26L27.4001 11.34C27.6401 10.36 28.6401 9.8 29.5801 10.06C30.5601 10.32 31.1201 11.3 30.8601 12.26L29.8001 16.2L33.7401 15.14C34.7001 14.88 35.6801 15.44 35.9401 16.42C36.2001 17.36 35.6401 18.36 34.6601 18.6Z" fill="#16A34A"/>
</svg>
