<svg width="114" height="24" viewBox="0 0 114 24" fill="none" xmlns="http://www.w3.org/2000/svg">
<path d="M57.3458 12.5149C57.3458 11.0138 56.9625 9.792 56.1785 8.84946C55.4119 7.92436 54.3666 7.45309 53.0599 7.45309C52.9205 7.45309 52.7812 7.45309 52.6418 7.47055C52.1365 7.52291 51.6661 7.64509 51.248 7.872C50.7079 8.15127 50.2723 8.55273 49.9587 9.07636H49.9239L49.9587 7.68H47.7461V21.1375H50.1504L50.0981 16.2153H50.133C50.3769 16.512 50.6382 16.7738 50.917 16.9658C51.4745 17.3673 52.154 17.5767 52.9205 17.5767C53.7742 17.5767 54.5234 17.3673 55.168 16.9658C55.499 16.7564 55.8127 16.4945 56.0914 16.1804C56.9451 15.2378 57.3458 14.016 57.3458 12.5149ZM52.5372 9.51273C53.2516 9.51273 53.8265 9.792 54.2795 10.3505C54.715 10.9091 54.9415 11.6422 54.9415 12.5498C54.9415 13.4749 54.715 14.1905 54.2446 14.7316C53.7917 15.2727 53.2167 15.5345 52.5198 15.5345C51.7707 15.5345 51.1957 15.2378 50.7602 14.6618C50.3246 14.0684 50.0981 13.3702 50.0981 12.5673C50.0981 11.5549 50.342 10.7869 50.8124 10.2807C51.2654 9.77455 51.8578 9.51273 52.5372 9.51273ZM60.8651 3.89236H58.4783V14.3127C58.4783 14.976 58.5654 15.5345 58.7396 15.9709C58.9138 16.4073 59.1752 16.7215 59.4714 16.9309C59.4888 16.9484 59.5062 16.9484 59.541 16.9658C59.8372 17.1404 60.116 17.2625 60.4122 17.3324C60.7083 17.4022 61.0568 17.4371 61.4575 17.4371L62.2241 17.3673V15.2727L61.8582 15.2902C61.5272 15.2902 61.2659 15.1855 61.1091 14.9935C60.9523 14.8015 60.8826 14.4524 60.8826 13.9462V3.89236M74.2107 8.81455C73.4615 9.72218 73.0957 10.8742 73.0957 12.2705C73.0957 13.6669 73.4789 14.8189 74.2455 15.7615C74.7334 16.3549 75.3257 16.7564 76.04 16.9658C76.4582 17.088 76.9112 17.1578 77.4164 17.1578C77.8694 17.1578 78.2875 17.088 78.6534 16.9658C79.2632 16.7564 79.751 16.3724 80.1169 15.7964H80.1517L80.1169 16.9135C80.1169 16.9309 80.1169 16.9484 80.1169 16.9484C80.0995 17.7338 79.8555 18.3098 79.3503 18.6938C78.845 19.0778 78.183 19.2698 77.3816 19.2698C76.4582 19.2698 75.5696 19.0604 74.6985 18.624L73.9668 20.4742C75.0295 21.0327 76.1794 21.312 77.4164 21.312C78.061 21.312 78.6882 21.2247 79.2806 21.0502C79.873 20.8931 80.4131 20.6313 80.9009 20.2647C81.3887 19.9156 81.7894 19.4444 82.0682 18.8335C82.3295 18.2749 82.4863 17.6465 82.5037 16.9484C82.5037 16.8785 82.5037 16.8087 82.5037 16.7389V7.66255H80.2388V8.43055L80.2737 8.69236H80.204C79.5942 7.85455 78.636 7.41818 77.3293 7.43564C76.0052 7.45309 74.9599 7.90691 74.2107 8.81455ZM76.1446 14.2953C75.7264 13.7542 75.5174 13.056 75.5174 12.1833C75.5174 11.3629 75.709 10.6996 76.1272 10.2284C76.5104 9.73964 77.068 9.49527 77.7823 9.49527C79.3677 9.49527 80.1691 10.4204 80.1691 12.288C80.1691 13.3004 79.9601 14.0335 79.5245 14.4698C79.1064 14.9062 78.5663 15.1331 77.9217 15.1331C77.1551 15.1331 76.5627 14.8538 76.1446 14.2953ZM71.9284 7.68H69.5415V12.1135C69.5415 13.0211 69.2976 13.7891 68.8098 14.4175C68.3219 15.0458 67.6599 15.36 66.8236 15.36C66.2661 15.36 65.8828 15.2029 65.6737 14.8713C65.4472 14.5396 65.3253 14.0509 65.3253 13.4051V7.68H62.921V13.8938C62.921 15.3425 63.3217 16.3724 64.1057 16.9658C64.6458 17.3673 65.3601 17.5767 66.2661 17.5767C67.0327 17.5767 67.7121 17.3673 68.3219 16.9658C68.9317 16.5644 69.3498 16.0931 69.5938 15.5345H69.6286L69.5763 17.3324H71.8761V7.68M84.7512 8.81455C84.0021 9.72218 83.6188 10.8742 83.6188 12.2705C83.6188 13.6669 84.0021 14.8189 84.7687 15.7615C85.2565 16.3549 85.8488 16.7564 86.5632 16.9658C86.9813 17.088 87.4343 17.1578 87.9395 17.1578C88.3925 17.1578 88.8106 17.088 89.1765 16.9658C89.7863 16.7564 90.2741 16.3724 90.6574 15.7964H90.6923L90.6574 16.9135C90.6574 16.9309 90.6574 16.9484 90.6574 16.9484C90.64 17.7338 90.3961 18.3098 89.8908 18.6938C89.3856 19.0778 88.7235 19.2698 87.9221 19.2698C86.9987 19.2698 86.1102 19.0604 85.2565 18.624L84.5247 20.4742C85.5875 21.0327 86.7374 21.312 87.9744 21.312C88.619 21.312 89.2462 21.2247 89.8386 21.0502C90.4309 20.8931 90.971 20.6313 91.4589 20.2647C91.9467 19.9156 92.3474 19.4444 92.6261 18.8335C92.8875 18.2749 93.0443 17.6465 93.0617 16.9484C93.0617 16.8785 93.0617 16.8087 93.0617 16.7389V7.66255H90.7968V8.43055L90.8316 8.69236H90.762C90.1522 7.85455 89.1939 7.41818 87.8873 7.43564C86.5632 7.45309 85.5178 7.90691 84.7512 8.81455ZM86.6503 10.2284C87.0336 9.73964 87.5911 9.49527 88.3054 9.49527C89.8908 9.49527 90.6923 10.4204 90.6923 12.288C90.6923 13.3004 90.4832 14.0335 90.0476 14.4698C89.6295 14.9062 89.0894 15.1331 88.4448 15.1331C87.6782 15.1331 87.0858 14.8538 86.6677 14.3127C86.2496 13.7716 86.0231 13.0735 86.0231 12.2007C86.0579 11.3629 86.2496 10.7171 86.6503 10.2284ZM99.4906 15.5171C98.724 15.5171 98.0619 15.2902 97.5393 14.8538C96.9992 14.4 96.6856 13.7716 96.6159 12.9687H103.254L103.323 12.0436C103.323 10.7171 102.94 9.61746 102.191 8.74473C101.442 7.88946 100.397 7.45309 99.055 7.45309C97.609 7.45309 96.4242 7.92436 95.5008 8.86691C94.5949 9.80946 94.1419 11.0138 94.1419 12.5149C94.1419 13.9287 94.6123 15.1156 95.5705 16.1105C95.919 16.4596 96.3023 16.7389 96.7204 16.9658C97.4696 17.3673 98.3407 17.5767 99.3338 17.5767C100.048 17.5767 100.745 17.4545 101.442 17.1927C101.651 17.1229 101.843 17.0531 102.034 16.9658C102.487 16.7564 102.888 16.4945 103.219 16.1804L102.261 14.4698C101.372 15.168 100.449 15.5171 99.4906 15.5171ZM97.4521 9.82691C97.8703 9.46036 98.3755 9.26836 98.9853 9.26836C99.5428 9.26836 99.9958 9.44291 100.362 9.80946C100.728 10.176 100.902 10.6822 100.919 11.3105H96.6681C96.7727 10.6996 97.034 10.1935 97.4521 9.82691ZM113.446 17.3324V3.89236H111.059L111.094 8.70982H111.059C110.449 7.872 109.508 7.43564 108.237 7.45309C106.947 7.45309 105.902 7.92436 105.101 8.84946C104.282 9.77455 103.881 11.0138 103.881 12.5149C103.881 14.016 104.264 15.2378 105.048 16.1629C105.31 16.4945 105.606 16.7564 105.954 16.9658C106.581 17.3673 107.313 17.5767 108.167 17.5767C108.829 17.5767 109.421 17.4196 109.961 17.1055C110.049 17.0531 110.118 17.0182 110.188 16.9658C110.606 16.6865 110.954 16.3375 111.198 15.9011H111.251L111.198 17.3324H113.446ZM108.707 9.51273C109.474 9.51273 110.066 9.80946 110.484 10.3855C110.902 10.9789 111.094 11.6771 111.094 12.4975C111.094 13.5098 110.867 14.2604 110.397 14.7665C109.944 15.2727 109.369 15.5345 108.69 15.5345C107.975 15.5345 107.383 15.2553 106.947 14.6967C106.512 14.1382 106.285 13.4051 106.285 12.4975C106.285 11.5724 106.512 10.8393 106.982 10.2982C107.453 9.77455 108.028 9.51273 108.707 9.51273Z" fill="#666666"/>
<path d="M44.4146 14.021H47.0181V11.5144H44.4146V14.021Z" fill="url(#paint0_linear_144_3715)"/>
<path d="M48.1865 11.5144H47.0181V14.0337H48.1865V11.5144Z" fill="#666666"/>
<path d="M3.31025 0C1.09761 0 0 1.09964 0 3.31636V20.6836C0 22.9004 1.09761 24 3.31025 24H37.7369C39.9495 24 41.0646 22.9004 41.0471 20.6836V3.31636C41.0471 1.11709 39.9495 0 37.7369 0H3.31025ZM1.49832 4.17164C1.49832 2.32146 2.42171 1.39636 4.26848 1.39636H36.7961C38.6603 1.39636 39.5837 2.32146 39.5837 4.17164V19.8109C39.5837 21.6785 38.6603 22.6036 36.7961 22.6036H4.26848C2.42171 22.6036 1.49832 21.6785 1.49832 19.8109V15.0982H1.6377C2.23006 15.0807 2.52625 14.8713 2.52625 14.4873V9.42546C2.52625 9.12873 2.36944 8.95419 2.02099 8.88437H1.4809V4.17164M1.6377 14.3651C1.6377 14.2604 1.67255 14.1905 1.72481 14.1207C1.7945 14.0509 1.88162 14.016 1.96873 14.016C2.05584 14.016 2.14295 14.0509 2.19522 14.1207C2.26491 14.1905 2.29975 14.2778 2.29975 14.3651C2.29975 14.4524 2.26491 14.5396 2.19522 14.592C2.12553 14.6618 2.05584 14.6967 1.96873 14.6967C1.88162 14.6967 1.7945 14.6618 1.72481 14.592C1.65513 14.5396 1.6377 14.4524 1.6377 14.3651Z" fill="#666666"/>
<path d="M1.72503 14.1207C1.67276 14.1905 1.63791 14.2778 1.63791 14.3651C1.63791 14.4524 1.67276 14.5396 1.72503 14.592C1.79472 14.6618 1.88183 14.6967 1.96894 14.6967C2.05605 14.6967 2.14316 14.6618 2.19543 14.592C2.26512 14.5396 2.29997 14.4524 2.29997 14.3651C2.29997 14.2604 2.26512 14.1905 2.19543 14.1207C2.12574 14.0509 2.05605 14.016 1.96894 14.016C1.88183 14.016 1.79472 14.0509 1.72503 14.1207ZM4.2687 1.39636C2.42192 1.39636 1.49854 2.32146 1.49854 4.17164V8.88437H2.03863C2.36966 8.95419 2.54388 9.12873 2.54388 9.42546V14.4873C2.54388 14.8713 2.23028 15.0807 1.65534 15.0982H1.51596V19.8109C1.51596 21.6785 2.43934 22.6036 4.28612 22.6036H36.7963C38.6605 22.6036 39.5839 21.6785 39.5839 19.8109V4.17164C39.5839 2.32146 38.6605 1.39636 36.7963 1.39636H4.2687Z" fill="black"/>
<path d="M26.1767 8.00291H23.9467V12.1571C23.9467 13.0124 23.7202 13.728 23.2672 14.3215C22.8142 14.9149 22.2044 15.2116 21.4204 15.2116C20.8977 15.2116 20.5319 15.0545 20.3402 14.7404C20.1312 14.4262 20.0266 13.9724 20.0266 13.3615V8.00291H17.7617V13.8153C17.7617 16.1193 18.8071 17.2713 20.8977 17.2713C21.6121 17.2713 22.2567 17.0793 22.8316 16.6953C23.3891 16.3287 23.7899 15.8749 24.0338 15.3513H24.0686L24.0164 17.0444H26.1942V8.00291M33.7032 11.6858V17.0444H35.9507V11.2145C35.9507 8.928 34.9053 7.776 32.7972 7.776C31.9784 7.776 31.2989 7.98546 30.7588 8.36946C30.2187 8.75346 29.8354 9.18982 29.5915 9.67855H29.5567L29.5915 7.98546H27.4311V17.0269H29.6786V12.8029C29.6786 11.9651 29.9225 11.2495 30.3929 10.6909C30.8808 10.1149 31.508 9.83564 32.292 9.83564C32.8321 9.83564 33.1979 9.99273 33.407 10.3069C33.6161 10.6211 33.7032 11.0749 33.7032 11.6858Z" fill="white"/>
<defs>
<linearGradient id="paint0_linear_144_3715" x1="45.7156" y1="13.7659" x2="45.7086" y2="11.8481" gradientUnits="userSpaceOnUse">
<stop offset="0.0235294" stop-color="#CCCCCC"/>
<stop offset="0.1725" stop-color="#7A7A7A"/>
<stop offset="0.3333" stop-color="#C9C9C9"/>
<stop offset="0.6392" stop-color="#F8F8F8"/>
<stop offset="0.6784" stop-color="white"/>
<stop offset="0.9725" stop-color="#C5C5C5"/>
<stop offset="1" stop-color="#848484"/>
</linearGradient>
</defs>
</svg>
