<svg width="76" height="82" viewBox="0 0 76 82" fill="none" xmlns="http://www.w3.org/2000/svg">
<path d="M50.3 4.07C50.3 1.87 49.2034 0.770004 47.01 0.770004H27.1C24.9 0.770004 23.8 1.87 23.8 4.07V43.58C23.8 45.7867 24.9 46.89 27.1 46.89H47.01C49.2034 46.89 50.3 45.7867 50.3 43.58V4.07ZM33.5 1.99001V2.15001C33.52 2.83001 33.75 3.17334 34.19 3.18H40C40.3334 3.18 40.5367 2.99 40.61 2.61V1.99001H46.01C48.1367 1.99001 49.2 3.05334 49.2 5.18001V42.52C49.2 44.6533 48.1367 45.72 46.01 45.72H28.1C25.9667 45.72 24.9 44.6533 24.9 42.52V5.18001C24.9 3.05334 25.9667 1.99001 28.1 1.99001H33.5ZM34.73 2.54001C34.73 2.64667 34.6934 2.73667 34.62 2.81C34.54 2.89 34.4434 2.93 34.33 2.93C34.2234 2.93 34.1367 2.89 34.07 2.81C33.9834 2.73667 33.94 2.64667 33.94 2.54001C33.94 2.43334 33.9834 2.33667 34.07 2.25001C34.1367 2.18334 34.2234 2.15001 34.33 2.15001C34.4434 2.15001 34.54 2.18334 34.62 2.25001C34.6934 2.33667 34.73 2.43334 34.73 2.54001Z" fill="#525252"/>
<path d="M50.3 4.07V43.58C50.3 45.7867 49.2034 46.89 47.01 46.89H27.1C24.9 46.89 23.8 45.7867 23.8 43.58V4.07C23.8 1.87 24.9 0.770004 27.1 0.770004H47.01C49.2034 0.770004 50.3 1.87 50.3 4.07Z" stroke="#525252" stroke-width="1.4"/>
<path d="M36 50.77V55.77H40V50.77H36Z" fill="#525252"/>
<path d="M0 55.52V57.52H75.64V55.52H0Z" fill="#525252"/>
<path d="M52.1199 65.6H49.5099V66.48L49.5599 66.79H49.4899C48.7966 65.8233 47.6999 65.34 46.1999 65.34C44.6666 65.34 43.4666 65.86 42.5999 66.9C41.7399 67.9467 41.3099 69.2633 41.3099 70.85C41.3099 72.4433 41.7499 73.7767 42.6299 74.85C43.5166 75.9233 44.7266 76.46 46.2599 76.46C47.6466 76.46 48.6832 75.9433 49.3699 74.91H49.4099L49.3699 76.19C49.3699 77.1167 49.0799 77.7967 48.4999 78.23C47.9199 78.67 47.1666 78.89 46.2399 78.89C45.1799 78.89 44.1566 78.6467 43.1699 78.16L42.3299 80.27C43.5566 80.91 44.8732 81.23 46.2799 81.23C47.0266 81.23 47.7399 81.13 48.4199 80.93C49.0932 80.7433 49.7132 80.4467 50.2799 80.04C50.8466 79.6467 51.2932 79.1033 51.6199 78.41C51.9532 77.7167 52.1199 76.9133 52.1199 76V65.6ZM44.0899 70.77C44.0899 69.83 44.3199 69.08 44.7799 68.52C45.2266 67.96 45.8632 67.68 46.6899 67.68C48.5166 67.68 49.4299 68.7433 49.4299 70.87C49.4299 72.03 49.1866 72.8633 48.6999 73.37C48.2199 73.8767 47.6066 74.13 46.8599 74.13C45.9799 74.13 45.2999 73.8167 44.8199 73.19C44.3332 72.57 44.0899 71.7633 44.0899 70.77ZM40.0099 65.6H37.3999V66.48L37.4499 66.79H37.3799C36.6866 65.8233 35.5899 65.34 34.0899 65.34C32.5566 65.34 31.3566 65.86 30.4899 66.9C29.6299 67.9467 29.1999 69.2633 29.1999 70.85C29.1999 72.4433 29.6399 73.7767 30.5199 74.85C31.4066 75.9233 32.6166 76.46 34.1499 76.46C35.5366 76.46 36.5732 75.9433 37.2599 74.91H37.2999L37.2599 76.19C37.2599 77.1167 36.9699 77.7967 36.3899 78.23C35.8099 78.67 35.0566 78.89 34.1299 78.89C33.0699 78.89 32.0466 78.6467 31.0599 78.16L30.2199 80.27C31.4466 80.91 32.7632 81.23 34.1699 81.23C34.9166 81.23 35.6299 81.13 36.3099 80.93C36.9832 80.7433 37.6032 80.4467 38.1699 80.04C38.7366 79.6467 39.1832 79.1033 39.5099 78.41C39.8432 77.7167 40.0099 76.9133 40.0099 76V65.6ZM31.9799 70.77C31.9799 69.83 32.2099 69.08 32.6699 68.52C33.1166 67.96 33.7532 67.68 34.5799 67.68C36.4066 67.68 37.3199 68.7433 37.3199 70.87C37.3199 72.03 37.0766 72.8633 36.5899 73.37C36.1099 73.8767 35.4966 74.13 34.7499 74.13C33.8699 74.13 33.1899 73.8167 32.7099 73.19C32.2232 72.57 31.9799 71.7633 31.9799 70.77ZM15.1699 61.26H12.4299V73.21C12.4299 73.97 12.5332 74.6033 12.7399 75.11C12.9466 75.61 13.2299 75.9733 13.5899 76.2C13.9499 76.4267 14.3032 76.58 14.6499 76.66C14.9966 76.74 15.3966 76.78 15.8499 76.78L16.7199 76.71V74.31L16.2999 74.33C15.9132 74.33 15.6266 74.22 15.4399 74C15.2599 73.78 15.1699 73.38 15.1699 72.8V61.26ZM20.3099 65.6H17.5599V72.72C17.5599 75.5333 18.8432 76.94 21.4099 76.94C22.2832 76.94 23.0699 76.7067 23.7699 76.24C24.4632 75.78 24.9532 75.2333 25.2399 74.6H25.2899L25.2199 76.67H27.8699V65.6H25.1399V70.68C25.1399 71.72 24.8599 72.6033 24.2999 73.33C23.7399 74.05 22.9832 74.41 22.0299 74.41C21.3966 74.41 20.9532 74.22 20.6999 73.84C20.4399 73.46 20.3099 72.8967 20.3099 72.15V65.6ZM6.22989 65.34C5.46989 65.34 4.77656 65.5033 4.14989 65.83C3.52323 66.15 3.02989 66.6067 2.66989 67.2H2.61989L2.66989 65.6H0.139893V81.02H2.89989L2.83989 75.37H2.87989C3.69323 76.4167 4.75656 76.94 6.06989 76.94C7.54323 76.94 8.75656 76.4033 9.70989 75.33C10.6632 74.2633 11.1399 72.8667 11.1399 71.14C11.1399 69.4133 10.6932 68.0133 9.79989 66.94C8.91323 65.8733 7.72323 65.34 6.22989 65.34ZM5.60989 67.7C6.42323 67.7 7.08656 68.02 7.59989 68.66C8.09989 69.2933 8.34989 70.1333 8.34989 71.18C8.34989 72.2333 8.08656 73.0667 7.55989 73.68C7.03323 74.2933 6.36989 74.6 5.56989 74.6C4.71656 74.6 4.04656 74.2667 3.55989 73.6C3.05989 72.9267 2.80989 72.1267 2.80989 71.2C2.80989 70.04 3.07989 69.1667 3.61989 68.58C4.15989 67.9933 4.82323 67.7 5.60989 67.7ZM72.8299 66.79H72.7899C72.0966 65.8233 71.0166 65.34 69.5499 65.34C68.0766 65.34 66.8732 65.87 65.9399 66.93C65.0066 67.9967 64.5399 69.4 64.5399 71.14C64.5399 72.86 64.9866 74.2533 65.8799 75.32C66.7799 76.4 67.9699 76.94 69.4499 76.94C70.2099 76.94 70.8966 76.76 71.5099 76.4C72.1299 76.06 72.6032 75.6 72.9299 75.02H72.9899L72.9299 76.67H75.5199V61.26H72.7899L72.8299 66.79ZM70.0899 67.7C70.9766 67.7 71.6599 68.0367 72.1399 68.71C72.6132 69.39 72.8499 70.1933 72.8499 71.12C72.8499 72.2733 72.5799 73.14 72.0399 73.72C71.5132 74.3067 70.8566 74.6 70.0699 74.6C69.2432 74.6 68.5799 74.2833 68.0799 73.65C67.5732 73.01 67.3199 72.1733 67.3199 71.14C67.3199 70.08 67.5866 69.24 68.1199 68.62C68.6599 68.0067 69.3166 67.7 70.0899 67.7ZM63.8999 70.6C63.8999 69.08 63.4666 67.82 62.5999 66.82C61.7332 65.8333 60.5332 65.34 58.9999 65.34C57.3332 65.34 55.9732 65.88 54.9199 66.96C53.8799 68.0333 53.3599 69.4267 53.3599 71.14C53.3599 72.7533 53.9066 74.1233 54.9999 75.25C56.0999 76.3767 57.5399 76.94 59.3199 76.94C60.1332 76.94 60.9399 76.7967 61.7399 76.51C62.5466 76.23 63.2266 75.84 63.7799 75.34L62.6799 73.37C61.6732 74.1767 60.6166 74.58 59.5099 74.58C58.6299 74.58 57.8799 74.3267 57.2599 73.82C56.6332 73.3 56.2799 72.58 56.1999 71.66H63.8199L63.8999 70.6ZM60.5099 68.05C60.9232 68.47 61.1366 69.0433 61.1499 69.77H56.2599C56.3932 69.0567 56.6966 68.4867 57.1699 68.06C57.6499 67.64 58.2366 67.43 58.9299 67.43C59.5699 67.43 60.0966 67.6367 60.5099 68.05Z" fill="#525252"/>
<path d="M40.11 35.55L40.15 33.54H37.59V44.22H40.25V39.22C40.25 38.22 40.5333 37.3867 41.1 36.72C41.6666 36.0533 42.41 35.72 43.33 35.72C43.9633 35.72 44.4 35.9033 44.64 36.27C44.8866 36.6367 45.01 37.18 45.01 37.9V44.22H47.67V37.35C47.67 34.6433 46.4266 33.29 43.94 33.29C42.9733 33.29 42.17 33.5233 41.53 33.99C40.89 34.4567 40.43 34.9767 40.15 35.55H40.11ZM28.64 33.54H25.98V40.4C25.98 43.12 27.2166 44.48 29.69 44.48C30.5366 44.48 31.2966 44.2533 31.97 43.8C32.6433 43.36 33.12 42.8367 33.4 42.23H33.44L33.38 44.22H35.93V33.54H33.29V38.44C33.29 39.44 33.0233 40.2933 32.49 41C31.95 41.6933 31.22 42.04 30.3 42.04C29.6866 42.04 29.2566 41.8567 29.01 41.49C28.7633 41.1233 28.64 40.58 28.64 39.86V33.54Z" fill="#525252"/>
</svg>
