<svg width="48" height="43" viewBox="0 0 48 43" fill="none" xmlns="http://www.w3.org/2000/svg">
<path d="M47.4453 19.3025C42.7467 11.329 33.9842 5.99993 24 5.99993C21.6277 5.99993 19.3249 6.30152 17.1291 6.86735L12.7315 0.853272C12.0981 -0.0515607 10.8512 -0.271727 9.94629 0.361606L8.85346 1.12644C7.94846 1.75985 7.72829 3.00694 8.36179 3.91194L11.956 8.77818C7.45413 10.9774 3.35238 14.5568 0.556882 19.2983C0.556048 19.2998 0.554965 19.3011 0.554048 19.3025C-0.176368 20.5421 -0.192951 22.0965 0.554048 23.3641C3.76238 28.8084 8.86588 33.0192 14.959 35.1432L4.60971 20.3584C5.31034 19.2965 6.09907 18.2954 6.96754 17.3658L16.9175 31.5807H16.9184L20.3042 36.4174C22.4852 36.713 24.6937 36.7457 26.8825 36.5149L11.0509 13.8983C12.0783 13.214 13.1589 12.6131 14.2823 12.1013L35.2686 41.8133C35.902 42.7182 37.1489 42.9382 38.0539 42.305L39.1467 41.5402C40.0517 40.9067 40.2719 39.6596 39.6384 38.7547L36.045 33.8899L36.0444 33.8892C40.8078 31.5577 44.7807 27.8858 47.4453 23.3641C47.8084 22.7489 48 22.0477 48 21.3333C48 20.619 47.8085 19.9177 47.4453 19.3025ZM32.5022 28.8283L30.9134 26.5591C32.9702 23.8452 33.2226 20.1963 31.6467 17.2524V17.2549C31.6467 19.2258 30.0492 20.8233 28.0784 20.8233C26.0927 20.8233 24.51 19.2108 24.51 17.2549C24.51 15.2841 26.1075 13.6866 28.0784 13.6866H28.0809C26.0184 12.5825 23.6207 12.383 21.455 13.0466L19.866 10.7768C21.1465 10.2754 22.5407 9.99993 24 9.99993C30.2635 9.99993 35.3334 15.0688 35.3334 21.3333C35.3334 24.2086 34.2639 26.8312 32.5022 28.8283Z" fill="#16A34A"/>
</svg>
