<svg width="96" height="19" viewBox="0 0 96 19" fill="none" xmlns="http://www.w3.org/2000/svg">
<path d="M91.2622 4.10207C92.0703 2.15159 93.3979 1.44231 94.7254 2.59487C95.8798 3.57012 96.3993 6.49584 95.6489 8.26901C93.5133 13.0566 90.3387 16.0709 86.8755 17.4895C83.6432 18.8194 79.9491 18.9967 76.7745 17.0462C75.2161 15.9823 73.8308 14.5638 72.4455 12.8792C71.7529 12.0813 71.1179 11.2834 70.4253 10.5741C70.079 10.2195 69.7904 9.95352 69.4441 9.68754L69.1672 9.47489C69.0682 9.42757 68.9593 9.38024 68.8669 9.33291C68.5783 9.1556 68.3474 9.06694 68.0588 8.97828H67.9433H67.8279C67.4816 9.06694 67.0775 9.06694 66.7312 9.06694C66.6735 9.06694 66.4426 9.15559 66.3849 9.15559C66.154 9.24425 65.9809 9.33291 65.75 9.42157C65.3459 9.59889 64.9419 9.86486 64.5378 10.1308H64.4801L64.1338 10.3968C63.9607 10.4855 63.7298 10.6628 63.5566 10.8401C63.1526 11.1947 62.7485 11.4607 62.3445 11.8153C61.5941 12.436 60.7861 13.1452 60.0357 13.7658C56.5148 16.6029 52.763 18.642 48.838 17.2235C47.2219 16.6916 45.6634 15.3617 44.2204 13.9431C43.4701 13.2339 42.7197 12.436 41.9693 11.7267C41.5653 11.2834 41.1613 10.9288 40.7572 10.5741C40.584 10.3968 40.3532 10.2195 40.1223 10.0422C40.0646 10.0422 40.0646 9.95352 40.0069 9.95352C40.0069 9.95352 39.9491 9.86486 39.8914 9.86486L39.8914 9.86483C39.4296 9.59887 38.9679 9.3329 38.4484 9.15559C38.2175 9.15559 38.0444 9.06694 37.8135 8.97828C37.7558 8.97828 37.6981 8.88962 37.6403 8.88962C36.89 8.53499 36.0242 8.7123 35.2738 8.80096C35.1007 8.80096 34.2926 8.7123 34.9852 8.80096C34.812 8.80096 34.5812 8.88962 34.408 8.97828C34.004 9.1556 33.6576 9.24425 33.2536 9.42157C32.4455 9.68755 31.6952 10.1308 30.9448 10.5741C27.6548 12.436 24.4802 14.8297 21.0747 16.2483C17.1497 17.8441 12.9939 18.5534 9.24209 15.6277C7.85681 14.5638 6.58697 13.0566 5.31713 11.638C4.68221 10.9288 3.98957 10.2195 3.29693 9.68754C3.25637 9.62525 3.18732 9.56295 3.1098 9.50066C3.07243 9.48316 3.04 9.46377 3.01585 9.43221C2.9455 9.39911 2.87827 9.36601 2.83517 9.33291C2.54657 9.1556 2.20025 8.97828 1.85393 8.88962C0.468651 8.53499 -0.223989 5.87523 0.0646107 3.83609C0.353211 1.44232 1.85393 0.555736 3.18149 0.91037C4.97081 1.44232 6.58697 3.03817 8.08769 4.63402C8.78033 5.34329 9.41525 6.14121 10.1079 6.85048C10.4542 7.20511 10.8005 7.55974 11.2046 7.91437C11.3777 8.09169 11.6086 8.26901 11.8395 8.44633L12.1858 8.7123C12.0704 8.62364 12.0127 8.62365 11.8972 8.53499C12.1281 8.88962 12.763 9.06694 13.1093 9.15559C13.2248 9.24425 13.802 9.33291 13.7443 9.33291C13.9174 9.42157 14.0329 9.42157 14.206 9.42157C15.1295 9.51023 15.9953 9.42157 16.9188 9.24425C16.9188 9.24425 17.496 9.06694 17.5538 9.06694C17.7847 9.06694 18.0155 8.97828 18.2464 8.88962C18.7659 8.80096 19.2854 8.53498 19.8049 8.35767C20.7284 7.91437 21.5942 7.47108 22.5177 7.02779C25.75 5.34328 28.8092 2.68354 32.1569 1.35366C36.0242 -0.242189 39.8337 0.378415 43.3546 3.3928C44.7976 4.63402 46.1252 6.22987 47.5682 7.55975C47.9722 7.91438 48.3185 8.18035 48.7226 8.53499C48.7226 8.62365 48.7803 8.62364 48.7803 8.62364L49.2998 8.88962C49.6461 9.06694 49.9347 9.24426 50.281 9.33291C50.3965 9.33291 50.5696 9.42157 50.6851 9.42157H50.8582C51.32 9.51023 51.8395 9.51023 52.3589 9.42157C52.4167 9.42157 52.7053 9.33291 52.763 9.33291C52.8784 9.33291 53.0516 9.24425 53.167 9.24425C53.9751 8.97828 54.7832 8.62365 55.5335 8.0917C55.649 8.00304 55.7067 8.00303 55.7644 7.91437C55.7644 7.91437 55.8221 7.82572 55.8799 7.82572C56.053 7.73706 56.1685 7.64841 56.2839 7.55975C56.6879 7.29377 57.092 6.93914 57.4383 6.67316C58.1887 6.05255 58.9967 5.34328 59.7471 4.72267C61.421 3.30414 63.1526 1.79695 64.9996 1.17634C67.2507 0.378415 69.4441 0.733053 71.522 2.24024C72.9072 3.21549 74.1194 4.72267 75.3315 6.14121C76.0241 6.93913 76.7168 7.6484 77.4094 8.35767C77.698 8.62364 77.9866 8.80096 78.2752 9.06694H78.3329H78.3906C78.5638 9.15559 78.6793 9.24426 78.8524 9.33291C79.1987 9.51023 79.5451 9.68755 79.8914 9.77621C80.0645 9.86486 80.18 9.95352 80.3531 9.95352H80.584C80.8149 9.95352 81.0458 10.0422 81.2766 10.0422H82.2579C82.4311 10.0422 83.5277 9.95352 84.0472 9.86486H84.1049H84.2204H84.2781C84.4513 9.77621 84.6244 9.7762 84.7976 9.68754C85.0862 9.59888 85.4325 9.51023 85.7788 9.33291C86.1829 9.1556 86.5292 8.97828 86.9332 8.80096C87.0487 8.7123 87.2218 8.62365 87.395 8.53499C87.5104 8.44633 87.5681 8.35767 87.6836 8.35767C87.5681 8.44633 87.4527 8.53499 87.395 8.53499C87.5681 8.62365 87.9722 8.18036 88.1453 8.00304L89.0111 7.20511C89.2997 6.93914 89.646 6.58451 89.9346 6.22987L90.281 5.69792L90.9736 4.63402C91.0313 4.54536 91.2045 4.19073 91.2622 4.10207Z" fill="#FB923C"/>
</svg>
