<svg width="154" height="32" viewBox="0 0 154 32" fill="none" xmlns="http://www.w3.org/2000/svg">
<path d="M42.4734 9.0068C42.4734 7.03409 41.4793 6.04773 39.4911 6.04773H3.95907C1.98636 6.04773 1 7.03409 1 9.0068V26.9121C1 28.8925 1.98636 29.8828 3.95907 29.8828H39.4911C41.4793 29.8828 42.4734 28.8925 42.4734 26.9121V9.0068ZM38.5396 7.03409C40.4582 7.03409 41.4175 7.98949 41.4175 9.90032V26.007C41.4175 27.9255 40.4582 28.8848 38.5396 28.8848H4.96863C3.05007 28.8848 2.09081 27.9255 2.09081 26.007V21.1448H2.24164C2.84506 21.1293 3.15066 20.9243 3.15839 20.5298V15.3079C3.15839 15.0139 2.99206 14.8321 2.65941 14.7625H2.09081V9.90032C2.09081 7.98949 3.05007 7.03409 4.96863 7.03409H38.5396ZM2.82185 20.1468C2.90695 20.2242 2.94951 20.3093 2.94951 20.4021C2.94951 20.5027 2.90695 20.5839 2.82185 20.6458C2.75997 20.7154 2.6826 20.7503 2.58977 20.7503C2.4892 20.7503 2.40026 20.7154 2.3229 20.6458C2.26874 20.5839 2.24164 20.5027 2.24164 20.4021C2.24164 20.3093 2.26874 20.2242 2.3229 20.1468C2.40026 20.0772 2.4892 20.0424 2.58977 20.0424C2.6826 20.0424 2.75997 20.0772 2.82185 20.1468Z" fill="#525252"/>
<path d="M3.95907 6.04773H39.4911C41.4793 6.04773 42.4735 7.03409 42.4735 9.0068V26.9121C42.4735 28.8925 41.4793 29.8828 39.4911 29.8828H3.95907C1.98636 29.8828 1 28.8925 1 26.9121V9.0068C1 7.03409 1.98636 6.04773 3.95907 6.04773Z" stroke="#525252" stroke-width="1.4"/>
<path d="M28.5141 16.4193V24.1579H26.5376V11.2938H28.4471V13.3038H28.6146C28.9161 12.6506 29.3739 12.1257 29.9881 11.7293C30.6023 11.3273 31.3951 11.1263 32.3666 11.1263C33.2376 11.1263 33.9998 11.305 34.653 11.6623C35.3063 12.0141 35.8143 12.5501 36.1773 13.2703C36.5402 13.985 36.7216 14.8895 36.7216 15.9838V24.1579H34.7451V16.1178C34.7451 15.1072 34.4827 14.32 33.9579 13.7561C33.433 13.1866 32.7128 12.9018 31.7971 12.9018C31.1662 12.9018 30.6023 13.0386 30.1054 13.3122C29.614 13.5858 29.226 13.985 28.9412 14.5098C28.6565 15.0347 28.5141 15.6712 28.5141 16.4193Z" fill="#525252"/>
<path d="M20.941 18.8983V11.2937H22.9175V24.1578H20.941V21.9803H20.807C20.5055 22.6335 20.0365 23.1891 19.4 23.6469C18.7635 24.0992 17.9595 24.3253 16.988 24.3253C16.184 24.3253 15.4693 24.1494 14.844 23.7977C14.2187 23.4403 13.7273 22.9043 13.37 22.1897C13.0127 21.4694 12.834 20.5621 12.834 19.4678V11.2937H14.8105V19.3338C14.8105 20.2718 15.0729 21.02 15.5977 21.5783C16.1282 22.1366 16.8038 22.4158 17.6245 22.4158C18.1158 22.4158 18.6156 22.2902 19.1236 22.0389C19.6373 21.7877 20.0672 21.4024 20.4134 20.8832C20.7651 20.3639 20.941 19.7023 20.941 18.8983Z" fill="#525252"/>
<path d="M51.1885 16.8165V20.1585H52.7435V16.8165H51.1885Z" fill="#525252"/>
<path d="M47.7188 20.1585H51.1884V16.8165H47.7188V20.1585Z" fill="#525252"/>
<mask id="mask0_38_162" style="mask-type:luminance" maskUnits="userSpaceOnUse" x="49" y="0" width="105" height="32">
<path d="M153.294 0H49.8804V32H153.294V0Z" fill="white"/>
</mask>
<g mask="url(#mask0_38_162)">
<path d="M139.362 24.0364C138.217 24.0364 137.206 23.7471 136.33 23.1686C135.453 22.5841 134.767 21.761 134.272 20.6994C133.777 19.6317 133.529 18.3703 133.529 16.915C133.529 15.4716 133.777 14.2191 134.272 13.1574C134.767 12.0958 135.456 11.2757 136.339 10.6972C137.221 10.1186 138.241 9.82934 139.398 9.82934C140.293 9.82934 141 9.97845 141.519 10.2767C142.043 10.5689 142.443 10.9029 142.717 11.2787C142.998 11.6485 143.215 11.9526 143.37 12.1912H143.549V5.42766H145.661V23.7501H143.621V21.6387H143.37C143.215 21.8892 142.995 22.2053 142.708 22.5871C142.422 22.9628 142.014 23.2998 141.483 23.598C140.952 23.8903 140.245 24.0364 139.362 24.0364ZM139.649 22.1397C140.496 22.1397 141.211 21.9191 141.796 21.4777C142.38 21.0304 142.825 20.4131 143.129 19.6258C143.433 18.8325 143.585 17.917 143.585 16.8792C143.585 15.8533 143.436 14.9557 143.138 14.1863C142.84 13.4109 142.398 12.8085 141.814 12.3791C141.229 11.9437 140.508 11.726 139.649 11.726C138.754 11.726 138.009 11.9556 137.412 12.4149C136.822 12.8682 136.377 13.4855 136.079 14.2668C135.787 15.0422 135.641 15.913 135.641 16.8792C135.641 17.8573 135.79 18.746 136.088 19.5452C136.392 20.3385 136.84 20.9707 137.43 21.4419C138.026 21.9071 138.766 22.1397 139.649 22.1397Z" fill="#525252"/>
<path d="M125.272 24.0364C123.948 24.0364 122.806 23.7442 121.845 23.1597C120.891 22.5692 120.155 21.7461 119.636 20.6904C119.123 19.6288 118.866 18.3942 118.866 16.9866C118.866 15.579 119.123 14.3384 119.636 13.2648C120.155 12.1853 120.876 11.3443 121.801 10.7419C122.731 10.1336 123.817 9.82938 125.057 9.82938C125.773 9.82938 126.48 9.94866 127.178 10.1872C127.875 10.4258 128.511 10.8135 129.083 11.3503C129.656 11.8811 130.112 12.5849 130.452 13.4617C130.792 14.3384 130.962 15.418 130.962 16.7003V17.5949H120.369V15.7699H128.815C128.815 14.9945 128.66 14.3026 128.35 13.6943C128.045 13.0859 127.61 12.6058 127.043 12.2539C126.483 11.902 125.821 11.726 125.057 11.726C124.216 11.726 123.489 11.9348 122.874 12.3523C122.266 12.7638 121.798 13.3006 121.47 13.9627C121.142 14.6247 120.978 15.3345 120.978 16.0919V17.3087C120.978 18.3465 121.157 19.2262 121.514 19.9479C121.878 20.6636 122.382 21.2093 123.026 21.5851C123.67 21.9549 124.419 22.1398 125.272 22.1398C125.827 22.1398 126.328 22.0622 126.775 21.9072C127.228 21.7461 127.619 21.5076 127.947 21.1914C128.275 20.8694 128.528 20.4698 128.707 19.9926L130.747 20.5652C130.532 21.257 130.172 21.8654 129.665 22.3903C129.158 22.9092 128.531 23.3147 127.786 23.607C127.04 23.8933 126.202 24.0364 125.272 24.0364Z" fill="#525252"/>
<path d="M109.705 29.1896C108.685 29.1896 107.808 29.0584 107.075 28.796C106.341 28.5395 105.73 28.1995 105.241 27.7761C104.758 27.3586 104.373 26.9112 104.087 26.4341L105.769 25.2532C105.96 25.5037 106.201 25.7899 106.493 26.112C106.786 26.4401 107.185 26.7234 107.692 26.9619C108.205 27.2065 108.876 27.3287 109.705 27.3287C110.815 27.3287 111.73 27.0604 112.452 26.5236C113.173 25.9868 113.534 25.1458 113.534 24.0006V21.2093H113.355C113.2 21.4598 112.98 21.77 112.693 22.1398C112.413 22.5036 112.007 22.8287 111.477 23.1149C110.952 23.3953 110.242 23.5354 109.347 23.5354C108.238 23.5354 107.242 23.273 106.359 22.7481C105.482 22.2233 104.788 21.4598 104.275 20.4578C103.768 19.4558 103.514 18.2391 103.514 16.8077C103.514 15.4001 103.762 14.1744 104.257 13.1306C104.752 12.0809 105.441 11.2698 106.323 10.6972C107.206 10.1186 108.226 9.82938 109.383 9.82938C110.278 9.82938 110.987 9.97848 111.512 10.2767C112.043 10.569 112.449 10.903 112.729 11.2787C113.015 11.6485 113.236 11.9527 113.391 12.1913H113.606V10.0083H115.646V24.1438C115.646 25.3247 115.377 26.285 114.84 27.0246C114.31 27.7701 113.594 28.3158 112.693 28.6618C111.799 29.0137 110.803 29.1896 109.705 29.1896ZM109.634 21.6388C110.481 21.6388 111.196 21.4449 111.781 21.0572C112.365 20.6696 112.81 20.1119 113.114 19.3842C113.418 18.6566 113.57 17.7858 113.57 16.7719C113.57 15.7818 113.421 14.908 113.123 14.1505C112.824 13.3931 112.383 12.7996 111.799 12.3702C111.214 11.9408 110.492 11.726 109.634 11.726C108.739 11.726 107.993 11.9527 107.397 12.406C106.806 12.8593 106.362 13.4676 106.064 14.2311C105.772 14.9945 105.626 15.8414 105.626 16.7719C105.626 17.7262 105.775 18.5701 106.073 19.3037C106.377 20.0314 106.824 20.604 107.415 21.0215C108.011 21.433 108.751 21.6388 109.634 21.6388Z" fill="#525252"/>
<path d="M94.3526 29.1896C93.3327 29.1896 92.4559 29.0584 91.7223 28.796C90.9887 28.5395 90.3774 28.1995 89.8883 27.7761C89.4052 27.3586 89.0205 26.9112 88.7342 26.4341L90.4161 25.2532C90.607 25.5037 90.8486 25.7899 91.1408 26.112C91.4331 26.4401 91.8327 26.7234 92.3396 26.9619C92.8526 27.2065 93.5236 27.3287 94.3526 27.3287C95.462 27.3287 96.3775 27.0604 97.0992 26.5236C97.8209 25.9868 98.1817 25.1458 98.1817 24.0006V21.2093H98.0028C97.8477 21.4598 97.627 21.77 97.3407 22.1398C97.0604 22.5036 96.6548 22.8287 96.124 23.1149C95.5992 23.3953 94.8894 23.5354 93.9947 23.5354C92.8854 23.5354 91.8893 23.273 91.0066 22.7481C90.1299 22.2233 89.435 21.4598 88.9221 20.4578C88.4151 19.4558 88.1616 18.2391 88.1616 16.8077C88.1616 15.4001 88.4091 14.1744 88.9042 13.1306C89.3992 12.0809 90.0881 11.2698 90.9708 10.6972C91.8535 10.1186 92.8734 9.82938 94.0305 9.82938C94.9252 9.82938 95.6349 9.97848 96.1598 10.2767C96.6906 10.569 97.0962 10.903 97.3765 11.2787C97.6628 11.6485 97.8835 11.9527 98.0386 12.1913H98.2533V10.0083H100.293V24.1438C100.293 25.3247 100.025 26.285 99.4879 27.0246C98.9571 27.7701 98.2414 28.3158 97.3407 28.6618C96.4461 29.0137 95.45 29.1896 94.3526 29.1896ZM94.281 21.6388C95.128 21.6388 95.8437 21.4449 96.4282 21.0572C97.0127 20.6696 97.457 20.1119 97.7612 19.3842C98.0654 18.6566 98.2175 17.7858 98.2175 16.7719C98.2175 15.7818 98.0684 14.908 97.7702 14.1505C97.472 13.3931 97.0306 12.7996 96.4461 12.3702C95.8616 11.9408 95.1399 11.726 94.281 11.726C93.3864 11.726 92.6408 11.9527 92.0444 12.406C91.4539 12.8593 91.0096 13.4676 90.7114 14.2311C90.4191 14.9945 90.273 15.8414 90.273 16.7719C90.273 17.7262 90.4221 18.5701 90.7203 19.3037C91.0245 20.0314 91.4718 20.604 92.0623 21.0215C92.6587 21.433 93.3983 21.6388 94.281 21.6388Z" fill="#525252"/>
<path d="M82.8272 18.1316V10.0081H84.9386V23.75H82.8272V21.4239H82.6841C82.362 22.1217 81.861 22.7152 81.1811 23.2042C80.5011 23.6874 79.6423 23.9289 78.6045 23.9289C77.7456 23.9289 76.9822 23.741 76.3142 23.3653C75.6461 22.9836 75.1213 22.411 74.7396 21.6476C74.3579 20.8782 74.167 19.909 74.167 18.7399V10.0081H76.2784V18.5968C76.2784 19.5988 76.5587 20.398 77.1193 20.9945C77.686 21.5909 78.4076 21.8891 79.2844 21.8891C79.8093 21.8891 80.3431 21.7549 80.8858 21.4865C81.4345 21.2181 81.8938 20.8066 82.2636 20.2519C82.6393 19.6972 82.8272 18.9904 82.8272 18.1316Z" fill="#525252"/>
<path d="M70.2999 5.42766V23.7501H68.1885V5.42766H70.2999Z" fill="#525252"/>
<path d="M52.8364 28.9033V10.0083H54.8762V12.1913H55.1267C55.2818 11.9527 55.4965 11.6485 55.7709 11.2787C56.0512 10.903 56.4508 10.569 56.9697 10.2767C57.4946 9.97848 58.2043 9.82938 59.099 9.82938C60.2561 9.82938 61.276 10.1186 62.1587 10.6972C63.0414 11.2757 63.7303 12.0958 64.2253 13.1575C64.7204 14.2191 64.9679 15.4716 64.9679 16.915C64.9679 18.3703 64.7204 19.6318 64.2253 20.6994C63.7303 21.761 63.0444 22.5841 62.1676 23.1686C61.2909 23.7472 60.2799 24.0364 59.1348 24.0364C58.252 24.0364 57.5453 23.8903 57.0144 23.5981C56.4836 23.2998 56.0751 22.9629 55.7888 22.5871C55.5025 22.2054 55.2818 21.8893 55.1267 21.6388H54.9478V28.9033H52.8364ZM54.912 16.8792C54.912 17.917 55.0641 18.8325 55.3683 19.6258C55.6725 20.4131 56.1168 21.0304 56.7013 21.4777C57.2858 21.9191 58.0015 22.1398 58.8485 22.1398C59.7312 22.1398 60.4678 21.9072 61.0583 21.4419C61.6547 20.9708 62.102 20.3385 62.4002 19.5453C62.7044 18.7461 62.8565 17.8574 62.8565 16.8792C62.8565 15.913 62.7074 15.0422 62.4092 14.2668C62.1169 13.4855 61.6726 12.8682 61.0762 12.4149C60.4857 11.9557 59.7431 11.726 58.8485 11.726C57.9896 11.726 57.2679 11.9437 56.6834 12.3791C56.0989 12.8086 55.6576 13.411 55.3593 14.1863C55.0611 14.9557 54.912 15.8534 54.912 16.8792Z" fill="#525252"/>
</g>
</svg>
