<svg width="154" height="33" viewBox="0 0 154 33" fill="none" xmlns="http://www.w3.org/2000/svg">
<path d="M42.3265 9.67318C42.3265 7.70047 41.3324 6.71411 39.3442 6.71411H3.8121C1.83938 6.71411 0.853027 7.70047 0.853027 9.67318V27.5785C0.853027 29.5589 1.83938 30.5491 3.8121 30.5491H39.3442C41.3324 30.5491 42.3265 29.5589 42.3265 27.5785V9.67318ZM38.3926 7.70047C40.3112 7.70047 41.2705 8.65588 41.2705 10.5667V26.6733C41.2705 28.5919 40.3112 29.5512 38.3926 29.5512H4.82166C2.9031 29.5512 1.94384 28.5919 1.94384 26.6733V21.8112H2.09467C2.69809 21.7957 3.00368 21.5907 3.01142 21.1962V15.9743C3.01142 15.6803 2.84509 15.4985 2.51243 15.4289H1.94384V10.5667C1.94384 8.65588 2.9031 7.70047 4.82166 7.70047H38.3926ZM2.67488 20.8132C2.75998 20.8906 2.80254 20.9757 2.80254 21.0685C2.80254 21.1691 2.75998 21.2503 2.67488 21.3122C2.61299 21.3818 2.53563 21.4166 2.4428 21.4166C2.34223 21.4166 2.25329 21.3818 2.17592 21.3122C2.12177 21.2503 2.09467 21.1691 2.09467 21.0685C2.09467 20.9757 2.12177 20.8906 2.17592 20.8132C2.25329 20.7436 2.34223 20.7088 2.4428 20.7088C2.53563 20.7088 2.61299 20.7436 2.67488 20.8132Z" fill="#F5F5F5"/>
<path d="M3.8121 6.71411H39.3442C41.3324 6.71411 42.3265 7.70047 42.3265 9.67318V27.5785C42.3265 29.5589 41.3324 30.5491 39.3442 30.5491H3.8121C1.83938 30.5491 0.853027 29.5589 0.853027 27.5785V9.67318C0.853027 7.70047 1.83938 6.71411 3.8121 6.71411Z" stroke="#F5F5F5" stroke-width="1.4"/>
<path d="M28.3671 17.0857V24.8243H26.3906V11.9602H28.3001V13.9702H28.4676C28.7691 13.317 29.227 12.7921 29.8411 12.3957C30.4553 11.9937 31.2481 11.7927 32.2197 11.7927C33.0907 11.7927 33.8528 11.9714 34.506 12.3287C35.1593 12.6805 35.6674 13.2165 36.0303 13.9367C36.3932 14.6514 36.5747 15.5559 36.5747 16.6502V24.8243H34.5982V16.7842C34.5982 15.7737 34.3357 14.9864 33.8109 14.4225C33.2861 13.853 32.5658 13.5682 31.6501 13.5682C31.0192 13.5682 30.4553 13.705 29.9584 13.9786C29.4671 14.2522 29.079 14.6514 28.7943 15.1762C28.5095 15.7011 28.3671 16.3376 28.3671 17.0857Z" fill="#F5F5F5"/>
<path d="M20.794 19.5647V11.9602H22.7706V24.8243H20.794V22.6468H20.66C20.3585 23.3 19.8895 23.8555 19.253 24.3134C18.6165 24.7656 17.8125 24.9918 16.841 24.9918C16.037 24.9918 15.3224 24.8159 14.697 24.4641C14.0717 24.1068 13.5803 23.5708 13.223 22.8561C12.8657 22.1359 12.687 21.2286 12.687 20.1342V11.9602H14.6635V20.0002C14.6635 20.9382 14.9259 21.6864 15.4508 22.2448C15.9812 22.8031 16.6568 23.0823 17.4775 23.0823C17.9689 23.0823 18.4686 22.9566 18.9767 22.7054C19.4903 22.4541 19.9203 22.0689 20.2664 21.5496C20.6182 21.0304 20.794 20.3687 20.794 19.5647Z" fill="#F5F5F5"/>
<path d="M51.0415 17.4829V20.8249H52.5965V17.4829H51.0415Z" fill="#F5F5F5"/>
<path d="M47.5718 20.8249H51.0414V17.4829H47.5718V20.8249Z" fill="#F5F5F5"/>
<mask id="mask0_39_46" style="mask-type:luminance" maskUnits="userSpaceOnUse" x="49" y="0" width="105" height="33">
<path d="M153.147 0.666504H49.7334V32.6665H153.147V0.666504Z" fill="white"/>
</mask>
<g mask="url(#mask0_39_46)">
<path d="M139.215 24.7027C138.07 24.7027 137.059 24.4135 136.183 23.8349C135.306 23.2504 134.62 22.4273 134.125 21.3657C133.63 20.2981 133.382 19.0366 133.382 17.5813C133.382 16.1379 133.63 14.8854 134.125 13.8238C134.62 12.7621 135.309 11.942 136.192 11.3635C137.074 10.7849 138.094 10.4957 139.251 10.4957C140.146 10.4957 140.853 10.6448 141.372 10.943C141.896 11.2353 142.296 11.5693 142.57 11.945C142.851 12.3148 143.068 12.619 143.223 12.8576H143.402V6.09399H145.514V24.4164H143.474V22.3051H143.223C143.068 22.5556 142.848 22.8717 142.561 23.2534C142.275 23.6292 141.867 23.9661 141.336 24.2644C140.805 24.5566 140.098 24.7027 139.215 24.7027ZM139.502 22.8061C140.349 22.8061 141.064 22.5854 141.649 22.144C142.233 21.6967 142.678 21.0794 142.982 20.2921C143.286 19.4988 143.438 18.5833 143.438 17.5455C143.438 16.5197 143.289 15.622 142.991 14.8526C142.693 14.0773 142.251 13.4749 141.667 13.0454C141.082 12.61 140.361 12.3923 139.502 12.3923C138.607 12.3923 137.862 12.622 137.265 13.0812C136.675 13.5345 136.23 14.1518 135.932 14.9331C135.64 15.7085 135.494 16.5793 135.494 17.5455C135.494 18.5237 135.643 19.4124 135.941 20.2116C136.245 21.0048 136.693 21.6371 137.283 22.1082C137.879 22.5735 138.619 22.8061 139.502 22.8061Z" fill="#F5F5F5"/>
<path d="M125.125 24.7029C123.801 24.7029 122.659 24.4107 121.698 23.8261C120.744 23.2357 120.008 22.4126 119.489 21.3569C118.976 20.2953 118.719 19.0606 118.719 17.6531C118.719 16.2455 118.976 15.0049 119.489 13.9313C120.008 12.8518 120.729 12.0108 121.654 11.4084C122.584 10.8 123.67 10.4958 124.91 10.4958C125.626 10.4958 126.333 10.6151 127.031 10.8537C127.728 11.0923 128.364 11.48 128.936 12.0168C129.509 12.5476 129.965 13.2514 130.305 14.1281C130.645 15.0049 130.815 16.0844 130.815 17.3668V18.2614H120.222V16.4363H128.668C128.668 15.661 128.513 14.9691 128.203 14.3607C127.898 13.7524 127.463 13.2722 126.896 12.9204C126.336 12.5685 125.674 12.3925 124.91 12.3925C124.069 12.3925 123.342 12.6013 122.727 13.0188C122.119 13.4303 121.651 13.9671 121.323 14.6291C120.995 15.2912 120.831 16.0009 120.831 16.7584V17.9751C120.831 19.0129 121.01 19.8927 121.367 20.6143C121.731 21.3301 122.235 21.8758 122.879 22.2516C123.524 22.6213 124.272 22.8062 125.125 22.8062C125.68 22.8062 126.181 22.7287 126.628 22.5736C127.081 22.4126 127.472 22.174 127.8 21.8579C128.128 21.5358 128.381 21.1362 128.56 20.6591L130.6 21.2317C130.385 21.9235 130.025 22.5319 129.518 23.0567C129.011 23.5756 128.384 23.9812 127.639 24.2735C126.893 24.5598 126.055 24.7029 125.125 24.7029Z" fill="#F5F5F5"/>
<path d="M109.558 29.8561C108.538 29.8561 107.662 29.7249 106.928 29.4624C106.194 29.206 105.583 28.866 105.094 28.4425C104.611 28.025 104.226 27.5777 103.94 27.1006L105.622 25.9196C105.813 26.1701 106.054 26.4564 106.346 26.7785C106.639 27.1065 107.038 27.3898 107.545 27.6284C108.058 27.8729 108.729 27.9952 109.558 27.9952C110.668 27.9952 111.583 27.7268 112.305 27.19C113.026 26.6532 113.387 25.8123 113.387 24.6671V21.8758H113.208C113.053 22.1263 112.833 22.4365 112.546 22.8062C112.266 23.1701 111.86 23.4951 111.33 23.7814C110.805 24.0617 110.095 24.2019 109.2 24.2019C108.091 24.2019 107.095 23.9395 106.212 23.4146C105.335 22.8897 104.641 22.1263 104.128 21.1243C103.621 20.1223 103.367 18.9056 103.367 17.4741C103.367 16.0665 103.615 14.8409 104.11 13.7971C104.605 12.7474 105.294 11.9362 106.176 11.3637C107.059 10.7851 108.079 10.4958 109.236 10.4958C110.131 10.4958 110.841 10.645 111.365 10.9432C111.896 11.2354 112.302 11.5694 112.582 11.9452C112.868 12.315 113.089 12.6192 113.244 12.8577H113.459V10.6748H115.499V24.8103C115.499 25.9912 115.23 26.9515 114.693 27.691C114.163 28.4366 113.447 28.9823 112.546 29.3282C111.652 29.6801 110.656 29.8561 109.558 29.8561ZM109.487 22.3052C110.334 22.3052 111.049 22.1114 111.634 21.7237C112.218 21.336 112.663 20.7784 112.967 20.0507C113.271 19.3231 113.423 18.4523 113.423 17.4383C113.423 16.4483 113.274 15.5745 112.976 14.817C112.678 14.0595 112.236 13.4661 111.652 13.0367C111.067 12.6072 110.345 12.3925 109.487 12.3925C108.592 12.3925 107.846 12.6192 107.25 13.0724C106.66 13.5257 106.215 14.1341 105.917 14.8975C105.625 15.661 105.479 16.5079 105.479 17.4383C105.479 18.3926 105.628 19.2366 105.926 19.9702C106.23 20.6979 106.677 21.2704 107.268 21.6879C107.864 22.0995 108.604 22.3052 109.487 22.3052Z" fill="#F5F5F5"/>
<path d="M94.2056 29.8561C93.1857 29.8561 92.309 29.7249 91.5754 29.4624C90.8417 29.206 90.2304 28.866 89.7413 28.4425C89.2582 28.025 88.8735 27.5777 88.5872 27.1006L90.2692 25.9196C90.46 26.1701 90.7016 26.4564 90.9938 26.7785C91.2861 27.1065 91.6857 27.3898 92.1927 27.6284C92.7056 27.8729 93.3766 27.9952 94.2056 27.9952C95.315 27.9952 96.2305 27.7268 96.9522 27.19C97.6739 26.6532 98.0347 25.8123 98.0347 24.6671V21.8758H97.8558C97.7007 22.1263 97.4801 22.4365 97.1938 22.8062C96.9134 23.1701 96.5079 23.4951 95.977 23.7814C95.4522 24.0617 94.7424 24.2019 93.8478 24.2019C92.7384 24.2019 91.7424 23.9395 90.8596 23.4146C89.9829 22.8897 89.288 22.1263 88.7751 21.1243C88.2681 20.1223 88.0146 18.9056 88.0146 17.4741C88.0146 16.0665 88.2622 14.8409 88.7572 13.7971C89.2522 12.7474 89.9411 11.9362 90.8239 11.3637C91.7066 10.7851 92.7265 10.4958 93.8836 10.4958C94.7782 10.4958 95.488 10.645 96.0128 10.9432C96.5437 11.2354 96.9492 11.5694 97.2296 11.9452C97.5158 12.315 97.7365 12.6192 97.8916 12.8577H98.1063V10.6748H100.146V24.8103C100.146 25.9912 99.8777 26.9515 99.3409 27.691C98.8101 28.4366 98.0944 28.9823 97.1938 29.3282C96.2991 29.6801 95.3031 29.8561 94.2056 29.8561ZM94.1341 22.3052C94.981 22.3052 95.6967 22.1114 96.2812 21.7237C96.8657 21.336 97.3101 20.7784 97.6143 20.0507C97.9184 19.3231 98.0705 18.4523 98.0705 17.4383C98.0705 16.4483 97.9214 15.5745 97.6232 14.817C97.325 14.0595 96.8836 13.4661 96.2991 13.0367C95.7146 12.6072 94.9929 12.3925 94.1341 12.3925C93.2394 12.3925 92.4939 12.6192 91.8974 13.0724C91.307 13.5257 90.8626 14.1341 90.5644 14.8975C90.2722 15.661 90.126 16.5079 90.126 17.4383C90.126 18.3926 90.2751 19.2366 90.5734 19.9702C90.8775 20.6979 91.3249 21.2704 91.9153 21.6879C92.5118 22.0995 93.2513 22.3052 94.1341 22.3052Z" fill="#F5F5F5"/>
<path d="M82.6802 18.798V10.6746H84.7916V24.4164H82.6802V22.0903H82.5371C82.215 22.7881 81.714 23.3816 81.0341 23.8707C80.3541 24.3538 79.4953 24.5953 78.4575 24.5953C77.5986 24.5953 76.8352 24.4075 76.1672 24.0317C75.4992 23.65 74.9743 23.0774 74.5926 22.314C74.2109 21.5446 74.02 20.5754 74.02 19.4064V10.6746H76.1314V19.2632C76.1314 20.2652 76.4117 21.0644 76.9724 21.6609C77.539 22.2573 78.2607 22.5555 79.1374 22.5555C79.6623 22.5555 80.1961 22.4213 80.7388 22.1529C81.2876 21.8845 81.7468 21.473 82.1166 20.9183C82.4924 20.3636 82.6802 19.6569 82.6802 18.798Z" fill="#F5F5F5"/>
<path d="M70.1529 6.09399V24.4164H68.0415V6.09399H70.1529Z" fill="#F5F5F5"/>
<path d="M52.6895 29.5698V10.6748H54.7293V12.8577H54.9798C55.1348 12.6192 55.3495 12.315 55.6239 11.9452C55.9042 11.5694 56.3038 11.2354 56.8227 10.9432C57.3476 10.645 58.0574 10.4958 58.952 10.4958C60.1091 10.4958 61.129 10.7851 62.0117 11.3637C62.8944 11.9422 63.5833 12.7623 64.0784 13.824C64.5734 14.8856 64.8209 16.1381 64.8209 17.5815C64.8209 19.0368 64.5734 20.2982 64.0784 21.3659C63.5833 22.4275 62.8974 23.2506 62.0207 23.8351C61.1439 24.4136 60.1329 24.7029 58.9878 24.7029C58.1051 24.7029 57.3983 24.5568 56.8675 24.2645C56.3366 23.9663 55.9281 23.6293 55.6418 23.2536C55.3555 22.8719 55.1348 22.5557 54.9798 22.3052H54.8008V29.5698H52.6895ZM54.765 17.5457C54.765 18.5835 54.9171 19.499 55.2213 20.2923C55.5255 21.0796 55.9698 21.6969 56.5543 22.1442C57.1389 22.5856 57.8546 22.8062 58.7015 22.8062C59.5842 22.8062 60.3208 22.5736 60.9113 22.1084C61.5077 21.6372 61.9551 21.005 62.2533 20.2118C62.5575 19.4125 62.7095 18.5238 62.7095 17.5457C62.7095 16.5795 62.5604 15.7087 62.2622 14.9333C61.97 14.152 61.5256 13.5347 60.9292 13.0814C60.3387 12.6221 59.5962 12.3925 58.7015 12.3925C57.8426 12.3925 57.121 12.6102 56.5365 13.0456C55.9519 13.475 55.5106 14.0774 55.2124 14.8528C54.9142 15.6222 54.765 16.5198 54.765 17.5457Z" fill="#F5F5F5"/>
</g>
</svg>
